<svg width="700" height="400" viewBox="0 0 700 400" fill="none" xmlns="http://www.w3.org/2000/svg">
<g clip-path="url(#clip0_512_22)">
<rect width="700" height="400" fill="#F5F5F5"/>
<path d="M815.52 48.7893C792.876 144.91 756.594 189.4 706.674 182.259C656.754 175.119 617.512 127.059 588.95 38.0788C560.388 -50.9013 561.031 -137.135 590.88 -220.622C620.729 -304.11 660.099 -352.719 708.99 -366.451C757.88 -380.182 793.519 -338.439 815.906 -241.22C838.293 -144.001 838.164 -47.3311 815.52 48.7893Z" fill="#FCD1DA"/>
<path d="M124.52 664.789C101.876 760.91 65.5937 805.4 15.6737 798.259C-34.2463 791.119 -73.4875 743.059 -102.05 654.079C-130.612 565.099 -129.969 478.865 -100.12 395.378C-70.271 311.89 -30.9011 263.281 17.9896 249.549C66.8803 235.818 102.519 277.561 124.906 374.78C147.293 471.999 147.164 568.669 124.52 664.789Z" fill="#FCD1DA"/>
<path d="M151.216 267.904V292H145.84V257.92H150.256L169.552 282.544V257.968H174.976V292H170.272L151.216 267.904ZM196.557 292.24C194.317 292.24 192.221 291.776 190.269 290.848C188.317 289.92 186.605 288.64 185.133 287.008C183.693 285.376 182.557 283.52 181.725 281.44C180.925 279.36 180.525 277.152 180.525 274.816C180.525 272.48 180.925 270.288 181.725 268.24C182.557 266.192 183.693 264.368 185.133 262.768C186.605 261.168 188.317 259.92 190.269 259.024C192.253 258.128 194.413 257.68 196.749 257.68C199.981 257.68 202.701 258.368 204.909 259.744C207.149 261.088 208.829 262.88 209.949 265.12L205.821 268.096C204.925 266.24 203.645 264.848 201.981 263.92C200.349 262.992 198.557 262.528 196.605 262.528C195.005 262.528 193.549 262.864 192.237 263.536C190.925 264.208 189.789 265.136 188.829 266.32C187.901 267.472 187.197 268.8 186.717 270.304C186.237 271.776 185.997 273.328 185.997 274.96C185.997 276.688 186.269 278.304 186.813 279.808C187.357 281.312 188.125 282.64 189.117 283.792C190.109 284.912 191.277 285.792 192.621 286.432C193.965 287.072 195.421 287.392 196.989 287.392C198.845 287.392 200.605 286.928 202.269 286C203.965 285.04 205.549 283.616 207.021 281.728V287.2C204.045 290.56 200.557 292.24 196.557 292.24ZM206.493 278.752H199.341V274.768H211.005V292H206.493V278.752ZM226.977 257.92H232.065L245.313 292H239.649L236.049 282.736H222.897L219.345 292H213.633L226.977 257.92ZM234.993 278.752L229.521 263.824L223.857 278.752H234.993ZM247.464 286C247.976 286.384 248.76 286.768 249.816 287.152C250.872 287.504 252.12 287.68 253.56 287.68C254.968 287.68 256.104 287.456 256.968 287.008C257.864 286.528 258.536 285.824 258.984 284.896C259.464 283.936 259.784 282.72 259.944 281.248C260.136 279.776 260.232 278.032 260.232 276.016V257.92H265.656V275.248C265.656 277.776 265.512 280.096 265.224 282.208C264.968 284.32 264.44 286.16 263.64 287.728C262.84 289.264 261.64 290.448 260.04 291.28C258.472 292.112 256.36 292.528 253.704 292.528C252.136 292.528 250.744 292.352 249.528 292C248.312 291.648 247.192 291.12 246.168 290.416L247.464 286ZM272.965 292V257.92H278.341V292H272.965ZM318.062 265.936C317.743 265.584 317.279 265.216 316.671 264.832C316.063 264.416 315.343 264.032 314.511 263.68C313.679 263.328 312.783 263.04 311.823 262.816C310.863 262.592 309.871 262.48 308.847 262.48C306.607 262.48 304.943 262.896 303.855 263.728C302.767 264.56 302.223 265.712 302.223 267.184C302.223 268.272 302.527 269.136 303.135 269.776C303.743 270.384 304.671 270.896 305.919 271.312C307.167 271.728 308.735 272.176 310.623 272.656C312.927 273.2 314.927 273.856 316.623 274.624C318.319 275.36 319.615 276.352 320.51 277.6C321.407 278.848 321.855 280.496 321.855 282.544C321.855 284.272 321.535 285.76 320.895 287.008C320.255 288.256 319.359 289.28 318.207 290.08C317.055 290.848 315.727 291.424 314.223 291.808C312.719 292.16 311.103 292.336 309.375 292.336C307.679 292.336 305.983 292.16 304.287 291.808C302.623 291.456 301.023 290.944 299.487 290.272C297.983 289.568 296.59 288.72 295.311 287.728L297.759 283.12C298.175 283.536 298.767 284 299.535 284.512C300.335 284.992 301.247 285.456 302.271 285.904C303.327 286.352 304.463 286.736 305.679 287.056C306.927 287.344 308.191 287.488 309.471 287.488C311.615 287.488 313.247 287.12 314.367 286.384C315.519 285.616 316.095 284.528 316.095 283.12C316.095 281.968 315.727 281.056 314.991 280.384C314.255 279.68 313.183 279.088 311.775 278.608C310.367 278.128 308.687 277.648 306.734 277.168C304.495 276.56 302.623 275.904 301.118 275.2C299.615 274.464 298.479 273.536 297.711 272.416C296.975 271.264 296.607 269.808 296.607 268.048C296.607 265.808 297.151 263.92 298.239 262.384C299.327 260.816 300.799 259.648 302.655 258.88C304.543 258.08 306.655 257.68 308.991 257.68C310.527 257.68 311.983 257.856 313.359 258.208C314.735 258.528 316.015 258.976 317.199 259.552C318.415 260.128 319.519 260.784 320.51 261.52L318.062 265.936ZM341.406 292.24C338.942 292.24 336.718 291.76 334.734 290.8C332.75 289.84 331.038 288.544 329.598 286.912C328.158 285.248 327.038 283.392 326.238 281.344C325.47 279.264 325.086 277.136 325.086 274.96C325.086 272.688 325.502 270.528 326.334 268.48C327.166 266.4 328.318 264.56 329.79 262.96C331.262 261.328 332.99 260.048 334.974 259.12C336.99 258.16 339.166 257.68 341.502 257.68C343.934 257.68 346.142 258.176 348.126 259.168C350.142 260.16 351.854 261.488 353.262 263.152C354.702 264.816 355.806 266.672 356.574 268.72C357.374 270.768 357.774 272.864 357.774 275.008C357.774 277.28 357.358 279.456 356.526 281.536C355.726 283.584 354.59 285.424 353.118 287.056C351.646 288.656 349.902 289.92 347.886 290.848C345.902 291.776 343.742 292.24 341.406 292.24ZM330.558 274.96C330.558 276.56 330.814 278.112 331.326 279.616C331.838 281.12 332.558 282.464 333.486 283.648C334.446 284.8 335.598 285.712 336.942 286.384C338.286 287.056 339.79 287.392 341.454 287.392C343.182 287.392 344.718 287.04 346.062 286.336C347.406 285.632 348.526 284.688 349.422 283.504C350.35 282.288 351.054 280.944 351.534 279.472C352.014 277.968 352.254 276.464 352.254 274.96C352.254 273.36 351.998 271.824 351.486 270.352C351.006 268.848 350.286 267.52 349.326 266.368C348.366 265.184 347.214 264.256 345.87 263.584C344.558 262.912 343.086 262.576 341.454 262.576C339.726 262.576 338.19 262.928 336.846 263.632C335.502 264.336 334.366 265.28 333.438 266.464C332.51 267.648 331.79 268.976 331.278 270.448C330.798 271.92 330.558 273.424 330.558 274.96ZM386.716 287.248V292H363.34V257.92H386.284V262.672H368.716V272.368H383.932V276.832H368.716V287.248H386.716ZM392.262 292V257.968H397.638V275.488L413.67 257.92H419.622L406.182 272.992L420.39 292H414.294L402.774 276.4L397.638 281.728V292H392.262ZM433.789 257.92H438.877L452.125 292H446.461L442.861 282.736H429.709L426.157 292H420.445L433.789 257.92ZM441.805 278.752L436.333 263.824L430.669 278.752H441.805ZM456.34 292V257.92H471.172C472.708 257.92 474.116 258.24 475.396 258.88C476.676 259.52 477.78 260.368 478.708 261.424C479.668 262.48 480.404 263.664 480.916 264.976C481.46 266.288 481.732 267.632 481.732 269.008C481.732 270.512 481.46 271.952 480.916 273.328C480.372 274.704 479.588 275.888 478.564 276.88C477.572 277.872 476.404 278.592 475.06 279.04L483.076 292H477.028L469.636 280.144H461.716V292H456.34ZM461.716 275.392H471.124C472.116 275.392 472.996 275.104 473.764 274.528C474.532 273.952 475.14 273.184 475.588 272.224C476.036 271.232 476.26 270.16 476.26 269.008C476.26 267.824 476.004 266.768 475.492 265.84C474.98 264.88 474.308 264.112 473.476 263.536C472.676 262.96 471.796 262.672 470.836 262.672H461.716V275.392ZM493.45 267.904V292H488.074V257.92H492.49L511.786 282.544V257.968H517.21V292H512.506L493.45 267.904ZM539.031 292.24C536.567 292.24 534.343 291.76 532.359 290.8C530.375 289.84 528.663 288.544 527.223 286.912C525.783 285.248 524.663 283.392 523.863 281.344C523.095 279.264 522.711 277.136 522.711 274.96C522.711 272.688 523.127 270.528 523.959 268.48C524.791 266.4 525.943 264.56 527.415 262.96C528.887 261.328 530.615 260.048 532.599 259.12C534.615 258.16 536.791 257.68 539.127 257.68C541.559 257.68 543.767 258.176 545.751 259.168C547.767 260.16 549.479 261.488 550.887 263.152C552.327 264.816 553.431 266.672 554.199 268.72C554.999 270.768 555.399 272.864 555.399 275.008C555.399 277.28 554.983 279.456 554.151 281.536C553.351 283.584 552.215 285.424 550.743 287.056C549.271 288.656 547.527 289.92 545.511 290.848C543.527 291.776 541.367 292.24 539.031 292.24ZM528.183 274.96C528.183 276.56 528.439 278.112 528.951 279.616C529.463 281.12 530.183 282.464 531.111 283.648C532.071 284.8 533.223 285.712 534.567 286.384C535.911 287.056 537.415 287.392 539.079 287.392C540.807 287.392 542.343 287.04 543.687 286.336C545.031 285.632 546.151 284.688 547.047 283.504C547.975 282.288 548.679 280.944 549.159 279.472C549.639 277.968 549.879 276.464 549.879 274.96C549.879 273.36 549.623 271.824 549.111 270.352C548.631 268.848 547.911 267.52 546.951 266.368C545.991 265.184 544.839 264.256 543.495 263.584C542.183 262.912 540.711 262.576 539.079 262.576C537.351 262.576 535.815 262.928 534.471 263.632C533.127 264.336 531.991 265.28 531.063 266.464C530.135 267.648 529.415 268.976 528.903 270.448C528.423 271.92 528.183 273.424 528.183 274.96Z" fill="#EF1B48"/>
<rect x="285" y="97" width="130" height="130" rx="65" fill="#FCD1DA"/>
<path d="M348.261 140.722V182.899H341.465L321.591 154.17H321.241V182.899H313.601V140.722H320.438L340.291 169.472H340.662V140.722H348.261ZM379.508 152.316C379.316 150.518 378.506 149.117 377.078 148.115C375.664 147.113 373.824 146.612 371.559 146.612C369.966 146.612 368.6 146.852 367.461 147.332C366.321 147.813 365.449 148.465 364.845 149.289C364.241 150.113 363.932 151.053 363.918 152.11C363.918 152.989 364.117 153.751 364.516 154.396C364.928 155.042 365.484 155.591 366.184 156.044C366.884 156.483 367.66 156.854 368.511 157.156C369.362 157.458 370.22 157.712 371.085 157.918L375.039 158.907C376.632 159.277 378.163 159.779 379.632 160.41C381.115 161.042 382.44 161.838 383.607 162.799C384.788 163.76 385.721 164.92 386.408 166.28C387.094 167.639 387.437 169.231 387.437 171.058C387.437 173.529 386.806 175.705 385.543 177.586C384.28 179.453 382.454 180.915 380.065 181.973C377.689 183.016 374.813 183.538 371.435 183.538C368.154 183.538 365.305 183.03 362.889 182.014C360.486 180.998 358.605 179.515 357.246 177.565C355.9 175.616 355.173 173.241 355.063 170.44H362.58C362.69 171.909 363.143 173.131 363.939 174.106C364.735 175.08 365.772 175.808 367.049 176.289C368.339 176.769 369.781 177.009 371.374 177.009C373.035 177.009 374.49 176.762 375.74 176.268C377.003 175.76 377.991 175.06 378.705 174.167C379.419 173.261 379.783 172.204 379.797 170.996C379.783 169.897 379.46 168.991 378.829 168.277C378.197 167.55 377.312 166.945 376.172 166.465C375.046 165.971 373.728 165.531 372.218 165.147L367.419 163.911C363.946 163.019 361.2 161.666 359.182 159.854C357.177 158.028 356.175 155.605 356.175 152.584C356.175 150.099 356.848 147.923 358.193 146.056C359.552 144.188 361.399 142.74 363.733 141.71C366.067 140.667 368.71 140.145 371.662 140.145C374.655 140.145 377.277 140.667 379.529 141.71C381.795 142.74 383.573 144.175 384.863 146.014C386.154 147.84 386.82 149.941 386.861 152.316H379.508Z" fill="#EF1B48"/>
</g>
<defs>
<clipPath id="clip0_512_22">
<rect width="700" height="400" fill="white"/>
</clipPath>
</defs>
</svg>
