<svg width="500" height="500" viewBox="0 0 500 500" fill="none" xmlns="http://www.w3.org/2000/svg">
<rect width="500" height="500" rx="250" fill="#FCD1DA"/>
<path d="M243.311 168.778V331H217.172L140.734 220.502H139.387V331H110V168.778H136.298L212.657 279.355H214.083V168.778H243.311ZM363.493 213.373C362.753 206.455 359.638 201.069 354.146 197.214C348.707 193.359 341.631 191.432 332.917 191.432C326.792 191.432 321.538 192.356 317.155 194.204C312.772 196.052 309.418 198.561 307.095 201.729C304.771 204.898 303.583 208.515 303.531 212.581C303.531 215.961 304.296 218.891 305.828 221.373C307.412 223.855 309.551 225.967 312.244 227.71C314.937 229.4 317.92 230.826 321.194 231.987C324.468 233.149 327.769 234.126 331.096 234.918L346.304 238.72C352.43 240.146 358.318 242.073 363.968 244.503C369.671 246.932 374.767 249.994 379.255 253.691C383.797 257.387 387.388 261.85 390.028 267.077C392.668 272.305 393.988 278.431 393.988 285.454C393.988 294.959 391.559 303.329 386.701 310.564C381.843 317.746 374.82 323.369 365.631 327.436C356.496 331.449 345.433 333.456 332.442 333.456C319.821 333.456 308.864 331.502 299.57 327.594C290.329 323.686 283.094 317.983 277.866 310.485C272.691 302.986 269.893 293.85 269.47 283.078H298.382C298.804 288.728 300.547 293.428 303.61 297.177C306.673 300.927 310.659 303.725 315.57 305.574C320.534 307.422 326.079 308.346 332.205 308.346C338.594 308.346 344.192 307.395 348.997 305.494C353.855 303.54 357.657 300.847 360.403 297.415C363.149 293.93 364.549 289.864 364.602 285.217C364.549 280.992 363.308 277.507 360.879 274.761C358.45 271.962 355.044 269.639 350.661 267.79C346.33 265.889 341.261 264.199 335.452 262.721L316.996 257.968C303.636 254.536 293.075 249.334 285.312 242.364C277.602 235.341 273.748 226.02 273.748 214.403C273.748 204.845 276.335 196.475 281.51 189.293C286.738 182.111 293.841 176.54 302.818 172.58C311.795 168.566 321.96 166.56 333.314 166.56C344.825 166.56 354.912 168.566 363.572 172.58C372.285 176.54 379.123 182.059 384.087 189.135C389.051 196.158 391.612 204.237 391.771 213.373H363.493Z" fill="#EF1B48"/>
</svg>
